<?xml version="1.0" encoding="UTF-8" standalone="no"?>
<svg width="500" height="300" xmlns="http://www.w3.org/2000/svg">
  <defs>
    <linearGradient id="gradient" x1="0%" y1="0%" x2="100%" y2="100%">
      <stop offset="0%" style="stop-color:#60a5fa;stop-opacity:1" />
      <stop offset="100%" style="stop-color:#1e40af;stop-opacity:1" />
    </linearGradient>
  </defs>
  <rect width="100%" height="100%" fill="#f8fafc" />
  
  <!-- Company Building -->
  <rect x="50" y="100" width="200" height="150" fill="#ffffff" stroke="#475569" stroke-width="2" />
  
  <!-- Windows -->
  <rect x="70" y="120" width="30" height="30" fill="#dbeafe" stroke="#475569" stroke-width="1" />
  <rect x="120" y="120" width="30" height="30" fill="#dbeafe" stroke="#475569" stroke-width="1" />
  <rect x="170" y="120" width="30" height="30" fill="#dbeafe" stroke="#475569" stroke-width="1" />
  
  <rect x="70" y="170" width="30" height="30" fill="#dbeafe" stroke="#475569" stroke-width="1" />
  <rect x="120" y="170" width="30" height="30" fill="#dbeafe" stroke="#475569" stroke-width="1" />
  <rect x="170" y="170" width="30" height="30" fill="#dbeafe" stroke="#475569" stroke-width="1" />
  
  <!-- Door -->
  <rect x="120" y="200" width="40" height="50" fill="#2563eb" stroke="#475569" stroke-width="1" />
  
  <!-- Company Name -->
  <rect x="70" y="70" width="160" height="30" rx="5" ry="5" fill="#2563eb" />
  <text x="150" y="90" text-anchor="middle" font-family="Arial" font-size="16" fill="#ffffff" font-weight="bold">
    Sentient.io
  </text>
  
  <!-- AI Elements -->
  <circle cx="350" cy="150" r="80" fill="url(#gradient)" opacity="0.8" />
  
  <!-- Network connections -->
  <line x1="250" y1="150" x2="300" y2="150" stroke="#475569" stroke-width="2" stroke-dasharray="5,5" />
  <line x1="250" y1="170" x2="310" y2="190" stroke="#475569" stroke-width="2" stroke-dasharray="5,5" />
  <line x1="250" y1="130" x2="310" y2="110" stroke="#475569" stroke-width="2" stroke-dasharray="5,5" />
  
  <!-- Binary code around the AI circle -->
  <text x="350" y="100" text-anchor="middle" font-family="Courier New" font-size="10" fill="#ffffff">10110101</text>
  <text x="350" y="120" text-anchor="middle" font-family="Courier New" font-size="10" fill="#ffffff">01001101</text>
  <text x="350" y="140" text-anchor="middle" font-family="Courier New" font-size="10" fill="#ffffff">11100110</text>
  <text x="350" y="160" text-anchor="middle" font-family="Courier New" font-size="10" fill="#ffffff">10010011</text>
  <text x="350" y="180" text-anchor="middle" font-family="Courier New" font-size="10" fill="#ffffff">01101001</text>
  <text x="350" y="200" text-anchor="middle" font-family="Courier New" font-size="10" fill="#ffffff">11010100</text>
  
  <!-- Brain icon in the center of the AI circle -->
  <ellipse cx="350" cy="150" rx="25" ry="20" fill="none" stroke="#ffffff" stroke-width="2" />
  <path d="M335,145 C345,135 355,135 365,145" fill="none" stroke="#ffffff" stroke-width="2" />
  <path d="M335,155 C345,165 355,165 365,155" fill="none" stroke="#ffffff" stroke-width="2" />
  <line x1="350" y1="130" x2="350" y2="170" stroke="#ffffff" stroke-width="2" />
</svg>
