<?xml version="1.0" encoding="UTF-8" standalone="no"?>
<svg width="500" height="300" xmlns="http://www.w3.org/2000/svg">
  <defs>
    <linearGradient id="gradient" x1="0%" y1="0%" x2="100%" y2="100%">
      <stop offset="0%" style="stop-color:#60a5fa;stop-opacity:1" />
      <stop offset="100%" style="stop-color:#2563eb;stop-opacity:1" />
    </linearGradient>
  </defs>
  <rect width="100%" height="100%" fill="#f0f9ff" />
  
  <!-- Chat bubbles -->
  <rect x="70" y="50" width="200" height="80" rx="20" ry="20" fill="#ffffff" stroke="#2563eb" stroke-width="2" />
  <rect x="230" y="150" width="200" height="80" rx="20" ry="20" fill="#2563eb" stroke="#2563eb" stroke-width="2" />
  
  <!-- Text in bubbles -->
  <text x="170" y="95" text-anchor="middle" font-family="Arial" font-size="16" fill="#1e40af">
    How can SmartChat help?
  </text>
  <text x="330" y="190" text-anchor="middle" font-family="Arial" font-size="16" fill="#ffffff">
    Private RAG for enterprises
  </text>
  
  <!-- Document icons -->
  <rect x="50" y="200" width="40" height="50" rx="5" ry="5" fill="#e0f2fe" stroke="#60a5fa" stroke-width="2" />
  <line x1="60" y1="215" x2="80" y2="215" stroke="#60a5fa" stroke-width="2" />
  <line x1="60" y1="225" x2="80" y2="225" stroke="#60a5fa" stroke-width="2" />
  <line x1="60" y1="235" x2="80" y2="235" stroke="#60a5fa" stroke-width="2" />
  
  <rect x="100" y="200" width="40" height="50" rx="5" ry="5" fill="#e0f2fe" stroke="#60a5fa" stroke-width="2" />
  <line x1="110" y1="215" x2="130" y2="215" stroke="#60a5fa" stroke-width="2" />
  <line x1="110" y1="225" x2="130" y2="225" stroke="#60a5fa" stroke-width="2" />
  <line x1="110" y1="235" x2="130" y2="235" stroke="#60a5fa" stroke-width="2" />
  
  <!-- Lock icon for security -->
  <circle cx="400" cy="80" r="30" fill="#ffffff" stroke="#2563eb" stroke-width="2" />
  <rect x="385" y="75" width="30" height="25" rx="5" ry="5" fill="#ffffff" stroke="#2563eb" stroke-width="2" />
  <rect x="395" y="55" width="10" height="20" rx="2" ry="2" fill="#ffffff" stroke="#2563eb" stroke-width="2" />
  
  <!-- AI brain icon -->
  <circle cx="430" cy="240" r="25" fill="url(#gradient)" />
  <path d="M415,240 C415,230 445,230 445,240 C445,250 415,250 415,240 Z" fill="none" stroke="#ffffff" stroke-width="2" />
  <path d="M430,215 L430,265" fill="none" stroke="#ffffff" stroke-width="2" />
  <path d="M420,225 L440,225" fill="none" stroke="#ffffff" stroke-width="2" />
  <path d="M420,255 L440,255" fill="none" stroke="#ffffff" stroke-width="2" />
</svg>
